<svg width="698" height="327" xmlns="http://www.w3.org/2000/svg" xmlns:xlink="http://www.w3.org/1999/xlink"><title>computer</title><defs><path id="a" d="M0 326h555.973V.836H0z"/></defs><g fill="none" fill-rule="evenodd"><path d="M518.783 278.977H145.5c-6.91 0-12.565-5.642-12.565-12.538V15.465c0-6.896 5.654-12.539 12.565-12.539h373.284c6.912 0 12.565 5.643 12.565 12.539v250.974c0 6.896-5.653 12.538-12.565 12.538z" fill="#A4EEEE"/><path d="M527.16 278.977H153.875c-6.91 0-12.565-5.642-12.565-12.538V15.465c0-6.896 5.655-12.539 12.565-12.539H527.16c6.912 0 12.565 5.643 12.565 12.539v250.974c0 6.896-5.653 12.538-12.565 12.538" fill="#26C5C5"/><path d="M528.374 278.977H155.089c-6.91 0-12.565-5.642-12.565-12.538V15.465c0-6.896 5.655-12.539 12.565-12.539h373.285c6.912 0 12.565 5.643 12.565 12.539v250.974c0 6.896-5.653 12.538-12.565 12.538z" stroke="#FFF" stroke-width="4"/><path d="M539.725 241.359H141.31v25.08c0 6.896 5.655 12.539 12.565 12.539H527.16c6.912 0 12.565-5.643 12.565-12.539v-25.08z" fill="#26C5C5"/><path d="M539.725 241.359H141.31v25.08c0 6.896 5.655 12.539 12.565 12.539H527.16c6.912 0 12.565-5.643 12.565-12.539v-25.08z" stroke="#FFF" stroke-width="5"/><path stroke="#FFF" stroke-width="4" d="M300.729 316.201h79.578v-37.223h-79.578z"/><path stroke="#FFF" stroke-width="4" d="M281.815 323.907H399.22v-7.706H281.815z"/><path fill="#FFF" d="M523.435 79.622h-4.189V22.938h-64.919v-4.18h69.108zm0 85.941h-4.189v56.684h-64.919v4.18h69.108zM154.077 79.622h4.188V22.938h64.92v-4.18h-69.108z"/><path fill="#72DCDC" d="M302.662 288.846h75.494v-7.354h-75.494z"/><path d="M115.372 311.368V102.514c0-6.896 5.654-12.538 12.565-12.538h136.412c6.912 0 12.565 5.642 12.565 12.538v208.854c0 6.897-5.653 12.539-12.565 12.539H127.937c-6.911 0-12.565-5.642-12.565-12.539" fill="#FFF"/><path d="M115.372 311.368V102.514c0-6.896 5.654-12.538 12.565-12.538h136.412c6.912 0 12.565 5.642 12.565 12.538v208.854c0 6.897-5.653 12.539-12.565 12.539H127.937c-6.911 0-12.565-5.642-12.565-12.539z" stroke="#A4EEEE" stroke-width="4"/><path d="M126.696 301.24V127.857c0-3.447 2.826-6.27 6.283-6.27h126.33c3.455 0 6.282 2.823 6.282 6.27V301.24c0 3.448-2.827 6.269-6.283 6.269h-126.33c-3.456 0-6.282-2.821-6.282-6.27" fill="#A4EEEE"/><path d="M126.696 301.24V127.857c0-3.447 2.826-6.27 6.283-6.27h126.33c3.455 0 6.282 2.823 6.282 6.27V301.24c0 3.448-2.827 6.269-6.283 6.269h-126.33c-3.456 0-6.282-2.821-6.282-6.27z" stroke="#A4EEEE" stroke-width="4"/><path d="M242.831 114.34c-4.546 0-8.23-3.678-8.23-8.214 0-4.537 3.684-8.215 8.23-8.215 4.547 0 8.231 3.678 8.231 8.215 0 4.536-3.684 8.214-8.23 8.214" fill="#FFF"/><path d="M242.831 114.34c-4.546 0-8.23-3.678-8.23-8.214 0-4.537 3.684-8.215 8.23-8.215 4.547 0 8.231 3.678 8.231 8.215 0 4.536-3.684 8.214-8.23 8.214z" stroke="#A4EEEE" stroke-width="4"/><path d="M227.268 100.833v10.428c0 2.63-2.157 4.783-4.792 4.783H204.54c-2.636 0-4.792-2.152-4.792-4.783v-10.428c0-2.63 2.156-4.782 4.792-4.782h17.936c2.635 0 4.792 2.152 4.792 4.782" fill="#FFF"/><path d="M227.268 100.833v10.428c0 2.63-2.157 4.783-4.792 4.783H204.54c-2.636 0-4.792-2.152-4.792-4.783v-10.428c0-2.63 2.156-4.782 4.792-4.782h17.936c2.635 0 4.792 2.152 4.792 4.782z" stroke="#A4EEEE" stroke-width="4"/><path d="M213.86 96.05v19.994h-9.32c-2.636 0-4.793-2.152-4.793-4.782v-10.426c0-2.632 2.158-4.786 4.797-4.786h9.317z" fill="#A4EEEE"/><path d="M213.86 96.05v19.994h-9.32c-2.636 0-4.793-2.152-4.793-4.782v-10.426c0-2.632 2.158-4.786 4.797-4.786h9.317z" stroke="#A4EEEE" stroke-width="4"/><path fill="#FFF" d="M504.386 323.907h-53.252L440.25 216.58h75.02z"/><path stroke="#A4EEEE" stroke-width="4" d="M504.386 323.907h-53.252L440.25 216.58h75.02z"/><path fill="#A4EEEE" d="M442.775 241.481l8.359 82.426h53.252l8.358-82.426z"/><path fill="#A4EEEE" d="M476.884 247.942l-16.805-91.973 5.934-2.467-1.273-5.846 5.504-1.91-2.28-6.571 5.279-1.58-.96-4.783 21.425-8.93 1.733 4.138-18.028 7.514 1.04 5.183-4.709 1.41 2.214 6.384-5.98 2.076 1.222 5.616-6.05 2.516 16.154 88.418z"/><path fill="#72DCDC" d="M442.44 323.812l-52.756.095-10.252-111.932h72.598z"/><path fill="#26C5C5" d="M450.816 323.812l-52.755.095-10.252-111.932h72.597z"/><path stroke="#FFF" stroke-width="4" d="M450.816 323.812l-52.755.095-10.252-111.932h72.597z"/><path d="M456.698 220.35h-81.934v-10.857c0-3.463 2.813-6.27 6.282-6.27h69.37c3.468 0 6.282 2.807 6.282 6.27v10.857z" fill="#72DCDC"/><path d="M465.074 220.35H383.14v-10.857c0-3.463 2.814-6.27 6.283-6.27h69.369c3.469 0 6.282 2.807 6.282 6.27v10.857z" fill="#A4EEEE"/><path d="M465.074 220.35H383.14v-10.857c0-3.463 2.814-6.27 6.283-6.27h69.369c3.469 0 6.282 2.807 6.282 6.27v10.857z" stroke="#FFF" stroke-width="4"/><path d="M449.892 203.224H381.57v-2.481c0-3.463 2.813-6.27 6.282-6.27h55.757c3.47 0 6.283 2.807 6.283 6.27v2.481z" fill="#72DCDC"/><path d="M458.268 203.224h-68.322v-2.481c0-3.463 2.814-6.27 6.283-6.27h55.757c3.469 0 6.282 2.807 6.282 6.27v2.481z" fill="#A4EEEE"/><path d="M458.268 203.224h-68.322v-2.481c0-3.463 2.814-6.27 6.283-6.27h55.757c3.469 0 6.282 2.807 6.282 6.27v2.481z" stroke="#FFF" stroke-width="4"/><path fill="#26C5C5" d="M455.43 301.703h-62.295l-5.192-56.161h72.678z"/><path stroke="#FFF" stroke-width="4" d="M455.43 301.703h-62.295l-5.192-56.161h72.678z"/><path d="M445.747 276.994c0 11.927-9.688 21.595-21.64 21.595-11.951 0-21.639-9.668-21.639-21.595 0-11.926 9.688-21.594 21.64-21.594 11.95 0 21.64 9.668 21.64 21.594" fill="#A4EEEE"/><path d="M445.747 276.994c0 11.927-9.688 21.595-21.64 21.595-11.951 0-21.639-9.668-21.639-21.595 0-11.926 9.688-21.594 21.64-21.594 11.95 0 21.64 9.668 21.64 21.594z" stroke="#72DCDC" stroke-width="4"/><path d="M436.606 276.994c0 6.888-5.596 12.473-12.5 12.473-6.9 0-12.497-5.585-12.497-12.473 0-6.888 5.596-12.472 12.498-12.472 6.903 0 12.499 5.584 12.499 12.472" fill="#FDFFFF"/><path d="M436.606 276.994c0 6.888-5.596 12.473-12.5 12.473-6.9 0-12.497-5.585-12.497-12.473 0-6.888 5.596-12.472 12.498-12.472 6.903 0 12.499 5.584 12.499 12.472z" stroke="#29ABE2" stroke-width="4"/><path d="M445.747 273.86c0 11.926-9.688 21.594-21.64 21.594-11.951 0-21.639-9.668-21.639-21.594 0-11.926 9.688-21.595 21.64-21.595 11.95 0 21.64 9.669 21.64 21.595" fill="#A4EEEE"/><path d="M445.747 273.86c0 11.926-9.688 21.594-21.64 21.594-11.951 0-21.639-9.668-21.639-21.594 0-11.926 9.688-21.595 21.64-21.595 11.95 0 21.64 9.669 21.64 21.595z" stroke="#FFF" stroke-width="4"/><path d="M436.606 273.86c0 6.888-5.596 12.472-12.5 12.472-6.9 0-12.497-5.584-12.497-12.472 0-6.89 5.596-12.473 12.498-12.473 6.903 0 12.499 5.584 12.499 12.473" fill="#26C5C5"/><path d="M436.606 273.86c0 6.888-5.596 12.472-12.5 12.472-6.9 0-12.497-5.584-12.497-12.472 0-6.89 5.596-12.473 12.498-12.473 6.903 0 12.499 5.584 12.499 12.473z" stroke="#FFF" stroke-width="4"/><path d="M406.307 179.524c1.156 0 2.094.936 2.094 2.09s-.938 2.09-2.094 2.09a2.092 2.092 0 0 1-2.094-2.09c0-1.154.938-2.09 2.094-2.09m0-9.926c1.156 0 2.094.936 2.094 2.09s-.938 2.089-2.094 2.089a2.092 2.092 0 0 1-2.094-2.09c0-1.153.938-2.09 2.094-2.09m0-9.926c1.156 0 2.094.936 2.094 2.09 0 1.155-.938 2.09-2.094 2.09a2.092 2.092 0 0 1-2.094-2.09c0-1.154.938-2.09 2.094-2.09m0-9.926c1.156 0 2.094.936 2.094 2.09s-.938 2.09-2.094 2.09a2.092 2.092 0 0 1-2.094-2.09c0-1.154.938-2.09 2.094-2.09m0-10.315c1.156 0 2.094.936 2.094 2.09 0 1.153-.938 2.09-2.094 2.09a2.093 2.093 0 0 1-2.094-2.09c0-1.154.938-2.09 2.094-2.09m11.314 40.094c1.156 0 2.094.936 2.094 2.09s-.938 2.09-2.094 2.09a2.092 2.092 0 0 1-2.094-2.09c0-1.154.938-2.09 2.094-2.09m0-9.926c1.156 0 2.094.936 2.094 2.09s-.938 2.089-2.094 2.089a2.092 2.092 0 0 1-2.094-2.09c0-1.153.938-2.09 2.094-2.09m11.315 9.927c1.156 0 2.094.936 2.094 2.09s-.938 2.09-2.094 2.09a2.092 2.092 0 0 1-2.094-2.09c0-1.154.938-2.09 2.094-2.09m0-9.926c1.156 0 2.094.936 2.094 2.09s-.938 2.089-2.094 2.089a2.092 2.092 0 0 1-2.094-2.09c0-1.153.938-2.09 2.094-2.09m0-9.926c1.156 0 2.094.936 2.094 2.09 0 1.155-.938 2.09-2.094 2.09a2.092 2.092 0 0 1-2.094-2.09c0-1.154.938-2.09 2.094-2.09m0-9.926c1.156 0 2.094.936 2.094 2.09s-.938 2.09-2.094 2.09a2.092 2.092 0 0 1-2.094-2.09c0-1.154.938-2.09 2.094-2.09m11.314 29.779c1.156 0 2.094.936 2.094 2.09s-.938 2.09-2.094 2.09a2.092 2.092 0 0 1-2.094-2.09c0-1.154.938-2.09 2.094-2.09m0-9.926c1.156 0 2.094.936 2.094 2.09s-.938 2.089-2.094 2.089a2.092 2.092 0 0 1-2.094-2.09c0-1.153.938-2.09 2.094-2.09m0-9.926c1.156 0 2.094.936 2.094 2.09 0 1.155-.938 2.09-2.094 2.09a2.092 2.092 0 0 1-2.094-2.09c0-1.154.938-2.09 2.094-2.09" fill="#FFF"/><path d="M538.211 248.137H516.11c-17.309 0-31.47 14.131-31.47 31.403 0 2.073 1.7 3.769 3.776 3.769h77.488a3.783 3.783 0 0 0 3.776-3.769c0-17.272-14.161-31.403-31.469-31.403m-45.943 75.77h69c4.412 0 8.02-3.6 8.02-8.003 0-2.64-2.165-4.8-4.811-4.8H489.06c-2.647 0-4.813 2.16-4.813 4.8 0 4.402 3.608 8.003 8.02 8.003m6.545-29.164l-14.783-4.133 1.223-1.817 13.56 3.79 14.173-3.962 14.173 3.963 14.173-3.963 14.175 3.963 13.563-3.791 1.223 1.817-14.786 4.133-14.175-3.962-14.173 3.962-14.173-3.962z" fill="#72DCDC"/><path d="M564.184 299.214H488.13a3.497 3.497 0 0 0-3.49 3.482 3.497 3.497 0 0 0 3.49 3.484h41.41l11.52 10.71 10.734-10.71h12.39c1.92 0 3.49-1.567 3.49-3.484a3.497 3.497 0 0 0-3.49-3.482" fill="#72DCDC"/><path d="M545.541 248.137h-22.102c-17.308 0-31.469 14.131-31.469 31.403 0 2.073 1.7 3.769 3.776 3.769h77.487a3.784 3.784 0 0 0 3.777-3.769c0-17.272-14.162-31.403-31.469-31.403" fill="#26C5C5"/><path d="M545.541 248.137h-22.102c-17.308 0-31.469 14.131-31.469 31.403 0 2.073 1.7 3.769 3.776 3.769h77.487a3.784 3.784 0 0 0 3.777-3.769c0-17.272-14.162-31.403-31.469-31.403z" stroke="#FFF" stroke-width="4"/><path d="M499.597 323.907h69c4.412 0 8.021-3.6 8.021-8.003 0-2.64-2.166-4.8-4.812-4.8H496.39c-2.647 0-4.812 2.16-4.812 4.8 0 4.402 3.608 8.003 8.02 8.003" fill="#26C5C5"/><path d="M499.597 323.907h69c4.412 0 8.021-3.6 8.021-8.003 0-2.64-2.166-4.8-4.812-4.8H496.39c-2.647 0-4.812 2.16-4.812 4.8 0 4.402 3.608 8.003 8.02 8.003z" stroke="#FFF" stroke-width="4"/><path fill="#26C5C5" d="M506.142 294.743l-14.783-4.133 1.223-1.817 13.56 3.79 14.173-3.962 14.172 3.963 14.173-3.963 14.176 3.963 13.563-3.791 1.223 1.817-14.786 4.133-14.176-3.962-14.173 3.962-14.172-3.962z"/><path stroke="#FFF" stroke-width="4" d="M506.142 294.743l-14.783-4.133 1.223-1.817 13.56 3.79 14.173-3.962 14.172 3.963 14.173-3.963 14.176 3.963 13.563-3.791 1.223 1.817-14.786 4.133-14.176-3.962-14.173 3.962-14.172-3.962z"/><path d="M571.514 299.214H495.46a3.497 3.497 0 0 0-3.49 3.482 3.497 3.497 0 0 0 3.49 3.484h41.409l11.52 10.71 10.734-10.71h12.39c1.92 0 3.49-1.567 3.49-3.484a3.497 3.497 0 0 0-3.49-3.482" fill="#A4EEEE"/><path d="M571.514 299.214H495.46a3.497 3.497 0 0 0-3.49 3.482 3.497 3.497 0 0 0 3.49 3.484h41.409l11.52 10.71 10.734-10.71h12.39c1.92 0 3.49-1.567 3.49-3.484a3.497 3.497 0 0 0-3.49-3.482z" stroke="#FFF" stroke-width="4"/><path d="M515.766 270.414c0 1.154-.938 2.09-2.094 2.09a2.093 2.093 0 0 1-2.095-2.09 2.094 2.094 0 0 1 4.189 0m9.947 0c0 1.154-.938 2.09-2.094 2.09a2.093 2.093 0 0 1-2.094-2.09c0-1.153.938-2.09 2.094-2.09s2.094.937 2.094 2.09m9.947 0c0 1.154-.938 2.09-2.094 2.09a2.093 2.093 0 0 1-2.094-2.09c0-1.153.938-2.09 2.094-2.09s2.094.937 2.094 2.09m9.948 0c0 1.154-.939 2.09-2.095 2.09a2.093 2.093 0 0 1-2.094-2.09 2.094 2.094 0 1 1 4.189 0m10.336 0c0 1.154-.938 2.09-2.094 2.09a2.093 2.093 0 0 1-2.094-2.09c0-1.153.938-2.09 2.094-2.09s2.094.937 2.094 2.09m-35.127-9.605c0 1.155-.938 2.09-2.094 2.09a2.092 2.092 0 0 1-2.094-2.09c0-1.154.938-2.09 2.094-2.09s2.094.936 2.094 2.09m9.947 0c0 1.155-.938 2.09-2.094 2.09a2.092 2.092 0 0 1-2.094-2.09c0-1.154.938-2.09 2.094-2.09s2.094.936 2.094 2.09m9.948 0c0 1.155-.939 2.09-2.095 2.09a2.092 2.092 0 0 1-2.094-2.09c0-1.154.938-2.09 2.094-2.09s2.095.936 2.095 2.09m9.947 0c0 1.155-.938 2.09-2.094 2.09a2.092 2.092 0 0 1-2.094-2.09c0-1.154.938-2.09 2.094-2.09s2.094.936 2.094 2.09" fill="#FFF"/><path d="M169.522 323.907H103.76c-6.91 0-12.565-5.642-12.565-12.539V185.882c0-6.896 5.656-12.538 12.565-12.538h65.763c6.911 0 12.565 5.642 12.565 12.538v125.486c0 6.897-5.654 12.539-12.565 12.539" fill="#72DCDC"/><path d="M177.9 323.907h-65.764c-6.91 0-12.565-5.642-12.565-12.539V185.882c0-6.896 5.655-12.538 12.565-12.538H177.9c6.91 0 12.565 5.642 12.565 12.538v125.486c0 6.897-5.654 12.539-12.565 12.539" fill="#26C5C5"/><path d="M177.9 323.907h-65.764c-6.91 0-12.565-5.642-12.565-12.539V185.882c0-6.896 5.655-12.538 12.565-12.538H177.9c6.91 0 12.565 5.642 12.565 12.538v125.486c0 6.897-5.654 12.539-12.565 12.539z" stroke="#FFF" stroke-width="4"/><path d="M174.091 292.313h-58.146c-3.456 0-6.283-2.821-6.283-6.27v-94.886c0-3.448 2.827-6.27 6.283-6.27h58.146c3.456 0 6.283 2.822 6.283 6.27v94.887c0 3.448-2.827 6.269-6.283 6.269" fill="#FFF"/><path d="M174.091 292.313h-58.146c-3.456 0-6.283-2.821-6.283-6.27v-94.886c0-3.448 2.827-6.27 6.283-6.27h58.146c3.456 0 6.283 2.822 6.283 6.27v94.887c0 3.448-2.827 6.269-6.283 6.269z" stroke="#29ABE2" stroke-width="4"/><path d="M174.92 184.887h-59.804a5.45 5.45 0 0 0-4.179 1.959l67.689 104a5.417 5.417 0 0 0 1.748-3.975V190.33c0-2.992-2.455-5.442-5.454-5.442" fill="#A4EEEE"/><path d="M174.091 292.313h-58.146c-3.456 0-6.283-2.821-6.283-6.27v-94.886c0-3.448 2.827-6.27 6.283-6.27h58.146c3.456 0 6.283 2.822 6.283 6.27v94.887c0 3.448-2.827 6.269-6.283 6.269z" stroke="#26C5C5" stroke-width="4"/><path d="M150.926 307.127a5.902 5.902 0 0 1-5.908 5.896 5.902 5.902 0 0 1-5.908-5.896c0-3.256 2.645-5.895 5.908-5.895a5.9 5.9 0 0 1 5.908 5.895" fill="#26C5C5"/><path d="M150.926 307.127a5.902 5.902 0 0 1-5.908 5.896 5.902 5.902 0 0 1-5.908-5.896c0-3.256 2.645-5.895 5.908-5.895a5.9 5.9 0 0 1 5.908 5.895z" stroke="#FFF" stroke-width="4"/><g transform="translate(25)"><mask id="b" fill="#fff"><use xlink:href="#a"/></mask><path d="M218.886 189.255c.18-2.58-1.786-4.839-4.37-5.02-2.586-.181-4.85 1.781-5.032 4.36l-4.788 67.99 9.4.659 4.79-67.989z" fill="#26C5C5" mask="url(#b)"/><path d="M218.886 189.255c.18-2.58-1.786-4.839-4.37-5.02-2.586-.181-4.85 1.781-5.032 4.36l-4.788 67.99 9.4.659 4.79-67.989z" stroke="#FFF" stroke-width="4" mask="url(#b)"/><path fill="#26C5C5" mask="url(#b)" d="M218.03 201.383l-9.4-.659.44-6.253 9.402.659z"/><path stroke="#FFF" stroke-width="4" mask="url(#b)" d="M218.03 201.383l-9.4-.659.44-6.253 9.402.659z"/><path d="M237.73 185.416c.509-2.536-1.154-5.026-3.694-5.534-2.541-.508-5.038 1.15-5.546 3.687l-13.417 66.829 9.24 1.847 13.417-66.829z" fill="#26C5C5" mask="url(#b)"/><path d="M237.73 185.416c.509-2.536-1.154-5.026-3.694-5.534-2.541-.508-5.038 1.15-5.546 3.687l-13.417 66.829 9.24 1.847 13.417-66.829z" stroke="#FFF" stroke-width="4" mask="url(#b)"/><path fill="#26C5C5" mask="url(#b)" d="M235.336 197.337l-9.24-1.847 1.234-6.147 9.24 1.847z"/><path stroke="#FFF" stroke-width="4" mask="url(#b)" d="M235.336 197.337l-9.24-1.847 1.234-6.147 9.24 1.847z"/><path d="M187.254 178.53c-.379-2.558-2.787-4.342-5.35-3.963-2.565.378-4.352 2.782-3.972 5.34l10 67.422 9.324-1.377-10.002-67.423z" fill="#72DCDC" mask="url(#b)"/><path fill="#72DCDC" mask="url(#b)" d="M189.039 190.557l-9.323 1.377-.92-6.203 9.322-1.377z"/><path d="M195.631 178.53c-.38-2.558-2.787-4.342-5.35-3.963-2.565.378-4.352 2.782-3.972 5.34l10 67.422 9.324-1.377-10.002-67.423z" fill="#26C5C5" mask="url(#b)"/><path d="M195.631 178.53c-.38-2.558-2.787-4.342-5.35-3.963-2.565.378-4.352 2.782-3.972 5.34l10 67.422 9.324-1.377-10.002-67.423z" stroke="#FFF" stroke-width="4" mask="url(#b)"/><path fill="#26C5C5" mask="url(#b)" d="M197.415 190.557l-9.322 1.377-.92-6.203 9.322-1.377z"/><path stroke="#FFF" stroke-width="4" mask="url(#b)" d="M197.415 190.557l-9.322 1.377-.92-6.203 9.322-1.377z"/><path d="M218.974 245.925h-31.108c-5.783 0-10.471 4.678-10.471 10.449v57.084c0 5.771 4.688 10.45 10.47 10.45h31.109c5.783 0 10.47-4.679 10.47-10.45v-57.084c0-5.77-4.687-10.449-10.47-10.449" fill="#72DDDD" mask="url(#b)"/><path d="M227.35 245.925h-31.108c-5.783 0-10.47 4.678-10.47 10.449v57.084c0 5.771 4.687 10.45 10.47 10.45h31.108c5.783 0 10.471-4.679 10.471-10.45v-57.084c0-5.77-4.688-10.449-10.47-10.449" fill="#26C5C5" mask="url(#b)"/><path d="M227.35 245.925h-31.108c-5.783 0-10.47 4.678-10.47 10.449v57.084c0 5.771 4.687 10.45 10.47 10.45h31.108c5.783 0 10.471-4.679 10.471-10.45v-57.084c0-5.77-4.688-10.449-10.47-10.449z" stroke="#FFF" stroke-width="4" mask="url(#b)"/><path d="M227.144 259.688a2.093 2.093 0 0 1-2.095-2.09c0-1.154.939-2.09 2.095-2.09 1.156 0 2.094.936 2.094 2.09 0 1.153-.938 2.09-2.094 2.09m0 9.926a2.093 2.093 0 0 1-2.095-2.09 2.094 2.094 0 0 1 4.189 0c0 1.154-.938 2.09-2.094 2.09m0 9.926a2.093 2.093 0 0 1-2.095-2.09 2.094 2.094 0 0 1 4.189 0c0 1.154-.938 2.09-2.094 2.09m0 9.926a2.093 2.093 0 0 1-2.095-2.09c0-1.153.939-2.089 2.095-2.089 1.156 0 2.094.936 2.094 2.09 0 1.153-.938 2.09-2.094 2.09m0 10.315a2.093 2.093 0 0 1-2.095-2.09c0-1.154.939-2.09 2.095-2.09 1.156 0 2.094.936 2.094 2.09 0 1.153-.938 2.09-2.094 2.09m-8.929-40.094a2.093 2.093 0 0 1-2.094-2.09c0-1.154.938-2.09 2.094-2.09s2.094.936 2.094 2.09c0 1.153-.938 2.09-2.094 2.09m0 9.926a2.093 2.093 0 0 1-2.094-2.09c0-1.153.938-2.09 2.094-2.09s2.094.937 2.094 2.09c0 1.154-.938 2.09-2.094 2.09m0 9.926a2.093 2.093 0 0 1-2.094-2.09c0-1.153.938-2.09 2.094-2.09s2.094.937 2.094 2.09c0 1.154-.938 2.09-2.094 2.09m0 10.315a2.093 2.093 0 0 1-2.094-2.09c0-1.153.938-2.09 2.094-2.09s2.094.937 2.094 2.09c0 1.154-.938 2.09-2.094 2.09M82.744 323.907h461.239m-458.24 1.909h456v-4h-456z" fill="#FFF" mask="url(#b)"/></g><rect fill="#FFF" x="26" y="322" width="63" height="5" rx="2.5"/><rect fill="#FFF" y="322" width="17" height="5" rx="2.5"/><rect fill="#FFF" x="583" y="322" width="12" height="5" rx="2.5"/><rect fill="#FFF" x="602" y="322" width="53" height="5" rx="2.5"/><rect fill="#FFF" x="662" y="322" width="36" height="5" rx="2.5"/><path d="M366.59 140.849l-4.957-4.856-8.838 8.66-3.055-2.995 7.599-7.445 1.238-1.213 3.056-2.995 4.956-4.854a6.88 6.88 0 0 0 0-9.873c-2.782-2.725-7.294-2.725-10.076 0l-4.957 4.854 8.84 8.66-3.057 2.995-7.6-7.445-1.238-1.215-3.057-2.995-4.955-4.854c-2.784-2.725-7.296-2.725-10.078 0a6.88 6.88 0 0 0 0 9.873l4.954 4.854 8.838-8.658 3.057 2.995-7.599 7.445-1.238 1.213-3.058 2.993-4.954 4.856a6.88 6.88 0 0 0 0 9.873c2.782 2.725 7.294 2.725 10.078 0l4.955-4.858-8.84-8.658 3.057-2.993 7.6 7.445 1.24 1.215 3.055 2.991 4.957 4.858c2.782 2.725 7.294 2.725 10.076 0a6.88 6.88 0 0 0 0-9.873m-13.133 12.868l-4.955-4.858-4.959 4.858c-4.469 4.377-11.718 4.377-16.189 0a11.057 11.057 0 0 1 0-15.863l4.955-4.854-4.955-4.856a11.055 11.055 0 0 1 0-15.86c4.471-4.378 11.72-4.378 16.19 0l4.958 4.855 4.955-4.856c4.47-4.377 11.72-4.377 16.19 0a11.055 11.055 0 0 1 0 15.861L364.69 133l4.957 4.854a11.057 11.057 0 0 1 0 15.863c-4.471 4.377-11.72 4.377-16.191 0" fill="#FFF"/></g></svg>